<mxfile host="app.diagrams.net" modified="2021-08-30T17:39:25.337Z" agent="5.0 (Windows NT 10.0; Win64; x64) AppleWebKit/537.36 (KHTML, like Gecko) Chrome/92.0.4515.159 Safari/537.36" etag="0GbnQcazFLSeK_b0mLQ0" version="15.0.3" type="github">
  <diagram id="1ciUxFazbSnDy7dfyZLV" name="Page-1">
    <mxGraphModel dx="1021" dy="572" grid="1" gridSize="10" guides="1" tooltips="1" connect="1" arrows="1" fold="1" page="1" pageScale="1" pageWidth="827" pageHeight="1169" math="0" shadow="0">
      <root>
        <mxCell id="0" />
        <mxCell id="1" parent="0" />
        <mxCell id="4Q6XDzFfQWT7hohU1TWe-5" value="Backend" style="swimlane;" vertex="1" parent="1">
          <mxGeometry x="120" y="180" width="205" height="230" as="geometry">
            <mxRectangle x="120" y="180" width="130" height="23" as="alternateBounds" />
          </mxGeometry>
        </mxCell>
        <mxCell id="4Q6XDzFfQWT7hohU1TWe-17" value="" style="swimlane;horizontal=0;startSize=23;" vertex="1" parent="4Q6XDzFfQWT7hohU1TWe-5">
          <mxGeometry x="5" y="30" width="195" height="100" as="geometry" />
        </mxCell>
        <mxCell id="4Q6XDzFfQWT7hohU1TWe-6" value="Frontend" style="swimlane;" vertex="1" parent="1">
          <mxGeometry x="510" y="180" width="210" height="250" as="geometry">
            <mxRectangle x="510" y="180" width="80" height="23" as="alternateBounds" />
          </mxGeometry>
        </mxCell>
        <mxCell id="4Q6XDzFfQWT7hohU1TWe-15" value="Admin panel" style="swimlane;horizontal=0;" vertex="1" parent="4Q6XDzFfQWT7hohU1TWe-6">
          <mxGeometry x="10" y="30" width="190" height="100" as="geometry" />
        </mxCell>
        <mxCell id="4Q6XDzFfQWT7hohU1TWe-16" value="Task view" style="swimlane;horizontal=0;startSize=23;" vertex="1" parent="4Q6XDzFfQWT7hohU1TWe-6">
          <mxGeometry x="10" y="140" width="190" height="100" as="geometry" />
        </mxCell>
        <mxCell id="4Q6XDzFfQWT7hohU1TWe-7" value="Vk bot" style="swimlane;" vertex="1" parent="1">
          <mxGeometry x="120" y="440" width="210" height="270" as="geometry" />
        </mxCell>
        <mxCell id="4Q6XDzFfQWT7hohU1TWe-13" value="Callback api" style="swimlane;horizontal=0;" vertex="1" parent="4Q6XDzFfQWT7hohU1TWe-7">
          <mxGeometry x="10" y="30" width="190" height="100" as="geometry" />
        </mxCell>
        <mxCell id="4Q6XDzFfQWT7hohU1TWe-18" value="wall_comment_new" style="rounded=0;whiteSpace=wrap;html=1;" vertex="1" parent="4Q6XDzFfQWT7hohU1TWe-13">
          <mxGeometry x="33" y="10" width="147" height="30" as="geometry" />
        </mxCell>
        <mxCell id="4Q6XDzFfQWT7hohU1TWe-14" value="Posting endpoint" style="swimlane;horizontal=0;" vertex="1" parent="4Q6XDzFfQWT7hohU1TWe-7">
          <mxGeometry x="10" y="145" width="190" height="115" as="geometry" />
        </mxCell>
        <mxCell id="4Q6XDzFfQWT7hohU1TWe-8" value="Task renderer" style="swimlane;" vertex="1" parent="1">
          <mxGeometry x="510" y="440" width="210" height="200" as="geometry" />
        </mxCell>
      </root>
    </mxGraphModel>
  </diagram>
</mxfile>
